<svg xmlns="http://www.w3.org/2000/svg" xmlns:xlink="http://www.w3.org/1999/xlink" width="500" zoomAndPan="magnify" viewBox="0 0 375 262.499992" height="350" preserveAspectRatio="xMidYMid meet" version="1.0"><defs><g/><clipPath id="f22b8551d2"><path d="M 33.046875 21 L 289 21 L 289 121 L 33.046875 121 Z M 33.046875 21 " clip-rule="nonzero"/></clipPath><clipPath id="d21627e5b3"><path d="M 33.046875 120 L 289 120 L 289 142.230469 L 33.046875 142.230469 Z M 33.046875 120 " clip-rule="nonzero"/></clipPath><clipPath id="ba3635c043"><path d="M 33.046875 0 L 289 0 L 289 22 L 33.046875 22 Z M 33.046875 0 " clip-rule="nonzero"/></clipPath><clipPath id="d435bcf54d"><path d="M 288 120 L 372 120 L 372 142.230469 L 288 142.230469 Z M 288 120 " clip-rule="nonzero"/></clipPath><clipPath id="fbc44011cb"><path d="M 5 38 L 278 38 L 278 196 L 5 196 Z M 5 38 " clip-rule="nonzero"/></clipPath><clipPath id="82db29dd80"><path d="M 35.027344 17.101562 L 363.917969 99.695312 L 329.277344 237.640625 L 0.386719 155.046875 Z M 35.027344 17.101562 " clip-rule="nonzero"/></clipPath><clipPath id="6683eb6f98"><path d="M 35.027344 17.101562 L 363.917969 99.695312 L 329.277344 237.640625 L 0.386719 155.046875 Z M 35.027344 17.101562 " clip-rule="nonzero"/></clipPath><clipPath id="c413ba9122"><path d="M 2 133 L 253 133 L 253 218 L 2 218 Z M 2 133 " clip-rule="nonzero"/></clipPath><clipPath id="fa62e5110e"><path d="M 35.027344 17.101562 L 363.917969 99.695312 L 329.277344 237.640625 L 0.386719 155.046875 Z M 35.027344 17.101562 " clip-rule="nonzero"/></clipPath><clipPath id="2cca4f714c"><path d="M 35.027344 17.101562 L 363.917969 99.695312 L 329.277344 237.640625 L 0.386719 155.046875 Z M 35.027344 17.101562 " clip-rule="nonzero"/></clipPath><clipPath id="629e616050"><path d="M 29 19 L 284 19 L 284 100 L 29 100 Z M 29 19 " clip-rule="nonzero"/></clipPath><clipPath id="3c3a65d86e"><path d="M 35.027344 17.101562 L 363.917969 99.695312 L 329.277344 237.640625 L 0.386719 155.046875 Z M 35.027344 17.101562 " clip-rule="nonzero"/></clipPath><clipPath id="270316feb1"><path d="M 35.027344 17.101562 L 363.917969 99.695312 L 329.277344 237.640625 L 0.386719 155.046875 Z M 35.027344 17.101562 " clip-rule="nonzero"/></clipPath><clipPath id="53c86ed936"><path d="M 278 79 L 362 79 L 362 121 L 278 121 Z M 278 79 " clip-rule="nonzero"/></clipPath><clipPath id="fd1d031e3b"><path d="M 35.027344 17.101562 L 363.917969 99.695312 L 329.277344 237.640625 L 0.386719 155.046875 Z M 35.027344 17.101562 " clip-rule="nonzero"/></clipPath><clipPath id="3eeb6a8de8"><path d="M 35.027344 17.101562 L 363.917969 99.695312 L 329.277344 237.640625 L 0.386719 155.046875 Z M 35.027344 17.101562 " clip-rule="nonzero"/></clipPath><clipPath id="55e6edb7df"><path d="M 254 100 L 359 100 L 359 217 L 254 217 Z M 254 100 " clip-rule="nonzero"/></clipPath><clipPath id="a1b1d8fdc7"><path d="M 35.027344 17.101562 L 363.917969 99.695312 L 329.277344 237.640625 L 0.386719 155.046875 Z M 35.027344 17.101562 " clip-rule="nonzero"/></clipPath><clipPath id="88dfa1a5ad"><path d="M 35.027344 17.101562 L 363.917969 99.695312 L 329.277344 237.640625 L 0.386719 155.046875 Z M 35.027344 17.101562 " clip-rule="nonzero"/></clipPath><clipPath id="8694deb118"><path d="M 248 196 L 335 196 L 335 236 L 248 236 Z M 248 196 " clip-rule="nonzero"/></clipPath><clipPath id="ff80a3ebfc"><path d="M 35.027344 17.101562 L 363.917969 99.695312 L 329.277344 237.640625 L 0.386719 155.046875 Z M 35.027344 17.101562 " clip-rule="nonzero"/></clipPath><clipPath id="32b44deaf7"><path d="M 35.027344 17.101562 L 363.917969 99.695312 L 329.277344 237.640625 L 0.386719 155.046875 Z M 35.027344 17.101562 " clip-rule="nonzero"/></clipPath><clipPath id="5097cf1056"><path d="M 36 79 L 85 79 L 85 121 L 36 121 Z M 36 79 " clip-rule="nonzero"/></clipPath><clipPath id="ef5c3ffa85"><path d="M 35.027344 17.101562 L 363.917969 99.695312 L 329.277344 237.640625 L 0.386719 155.046875 Z M 35.027344 17.101562 " clip-rule="nonzero"/></clipPath><clipPath id="d837eabcd1"><path d="M 35.027344 17.101562 L 363.917969 99.695312 L 329.277344 237.640625 L 0.386719 155.046875 Z M 35.027344 17.101562 " clip-rule="nonzero"/></clipPath><clipPath id="7c3e47a8ae"><path d="M 101 70 L 258 70 L 258 126 L 101 126 Z M 101 70 " clip-rule="nonzero"/></clipPath><clipPath id="c53f46e4c0"><path d="M 35.027344 17.101562 L 363.917969 99.695312 L 329.277344 237.640625 L 0.386719 155.046875 Z M 35.027344 17.101562 " clip-rule="nonzero"/></clipPath><clipPath id="ee64ce8ae0"><path d="M 35.027344 17.101562 L 363.917969 99.695312 L 329.277344 237.640625 L 0.386719 155.046875 Z M 35.027344 17.101562 " clip-rule="nonzero"/></clipPath><clipPath id="5d7689641f"><path d="M 94 97 L 251 97 L 251 153 L 94 153 Z M 94 97 " clip-rule="nonzero"/></clipPath><clipPath id="96273000ee"><path d="M 35.027344 17.101562 L 363.917969 99.695312 L 329.277344 237.640625 L 0.386719 155.046875 Z M 35.027344 17.101562 " clip-rule="nonzero"/></clipPath><clipPath id="466aa6e5bc"><path d="M 35.027344 17.101562 L 363.917969 99.695312 L 329.277344 237.640625 L 0.386719 155.046875 Z M 35.027344 17.101562 " clip-rule="nonzero"/></clipPath><clipPath id="4a9c11639e"><path d="M 87 125 L 244 125 L 244 180 L 87 180 Z M 87 125 " clip-rule="nonzero"/></clipPath><clipPath id="fc786ff10a"><path d="M 35.027344 17.101562 L 363.917969 99.695312 L 329.277344 237.640625 L 0.386719 155.046875 Z M 35.027344 17.101562 " clip-rule="nonzero"/></clipPath><clipPath id="697fada7e6"><path d="M 35.027344 17.101562 L 363.917969 99.695312 L 329.277344 237.640625 L 0.386719 155.046875 Z M 35.027344 17.101562 " clip-rule="nonzero"/></clipPath><clipPath id="15875fe01c"><path d="M 279 195 L 328 195 L 328 208 L 279 208 Z M 279 195 " clip-rule="nonzero"/></clipPath><clipPath id="b07e407643"><path d="M 35.027344 17.101562 L 363.917969 99.695312 L 329.277344 237.640625 L 0.386719 155.046875 Z M 35.027344 17.101562 " clip-rule="nonzero"/></clipPath><clipPath id="9b947855b6"><path d="M 35.027344 17.101562 L 363.917969 99.695312 L 329.277344 237.640625 L 0.386719 155.046875 Z M 35.027344 17.101562 " clip-rule="nonzero"/></clipPath><clipPath id="886c63e905"><path d="M 280 192 L 329 192 L 329 206 L 280 206 Z M 280 192 " clip-rule="nonzero"/></clipPath><clipPath id="3a6f0a224d"><path d="M 35.027344 17.101562 L 363.917969 99.695312 L 329.277344 237.640625 L 0.386719 155.046875 Z M 35.027344 17.101562 " clip-rule="nonzero"/></clipPath><clipPath id="e0da33bbab"><path d="M 35.027344 17.101562 L 363.917969 99.695312 L 329.277344 237.640625 L 0.386719 155.046875 Z M 35.027344 17.101562 " clip-rule="nonzero"/></clipPath><clipPath id="8f65110d62"><path d="M 281 189 L 330 189 L 330 204 L 281 204 Z M 281 189 " clip-rule="nonzero"/></clipPath><clipPath id="b7641b5779"><path d="M 35.027344 17.101562 L 363.917969 99.695312 L 329.277344 237.640625 L 0.386719 155.046875 Z M 35.027344 17.101562 " clip-rule="nonzero"/></clipPath><clipPath id="a3235bd6b6"><path d="M 35.027344 17.101562 L 363.917969 99.695312 L 329.277344 237.640625 L 0.386719 155.046875 Z M 35.027344 17.101562 " clip-rule="nonzero"/></clipPath><clipPath id="7a398f8171"><path d="M 281 187 L 330 187 L 330 202 L 281 202 Z M 281 187 " clip-rule="nonzero"/></clipPath><clipPath id="2a9be8abf8"><path d="M 35.027344 17.101562 L 363.917969 99.695312 L 329.277344 237.640625 L 0.386719 155.046875 Z M 35.027344 17.101562 " clip-rule="nonzero"/></clipPath><clipPath id="f967b796d2"><path d="M 35.027344 17.101562 L 363.917969 99.695312 L 329.277344 237.640625 L 0.386719 155.046875 Z M 35.027344 17.101562 " clip-rule="nonzero"/></clipPath><clipPath id="a061d8c255"><path d="M 282 186 L 331 186 L 331 199 L 282 199 Z M 282 186 " clip-rule="nonzero"/></clipPath><clipPath id="20844da264"><path d="M 35.027344 17.101562 L 363.917969 99.695312 L 329.277344 237.640625 L 0.386719 155.046875 Z M 35.027344 17.101562 " clip-rule="nonzero"/></clipPath><clipPath id="8992caea97"><path d="M 35.027344 17.101562 L 363.917969 99.695312 L 329.277344 237.640625 L 0.386719 155.046875 Z M 35.027344 17.101562 " clip-rule="nonzero"/></clipPath><clipPath id="0e0280abd0"><path d="M 282 183 L 331 183 L 331 198 L 282 198 Z M 282 183 " clip-rule="nonzero"/></clipPath><clipPath id="08b2205f53"><path d="M 35.027344 17.101562 L 363.917969 99.695312 L 329.277344 237.640625 L 0.386719 155.046875 Z M 35.027344 17.101562 " clip-rule="nonzero"/></clipPath><clipPath id="423cb09606"><path d="M 35.027344 17.101562 L 363.917969 99.695312 L 329.277344 237.640625 L 0.386719 155.046875 Z M 35.027344 17.101562 " clip-rule="nonzero"/></clipPath><clipPath id="696a06dff3"><path d="M 283 181 L 332 181 L 332 195 L 283 195 Z M 283 181 " clip-rule="nonzero"/></clipPath><clipPath id="e3622dfab6"><path d="M 35.027344 17.101562 L 363.917969 99.695312 L 329.277344 237.640625 L 0.386719 155.046875 Z M 35.027344 17.101562 " clip-rule="nonzero"/></clipPath><clipPath id="3d067d3058"><path d="M 35.027344 17.101562 L 363.917969 99.695312 L 329.277344 237.640625 L 0.386719 155.046875 Z M 35.027344 17.101562 " clip-rule="nonzero"/></clipPath><clipPath id="6a2c12b9fb"><path d="M 283 178 L 332 178 L 332 193 L 283 193 Z M 283 178 " clip-rule="nonzero"/></clipPath><clipPath id="76fee8e8f1"><path d="M 35.027344 17.101562 L 363.917969 99.695312 L 329.277344 237.640625 L 0.386719 155.046875 Z M 35.027344 17.101562 " clip-rule="nonzero"/></clipPath><clipPath id="c15a5491ab"><path d="M 35.027344 17.101562 L 363.917969 99.695312 L 329.277344 237.640625 L 0.386719 155.046875 Z M 35.027344 17.101562 " clip-rule="nonzero"/></clipPath><clipPath id="cb58777543"><path d="M 284 177 L 333 177 L 333 190 L 284 190 Z M 284 177 " clip-rule="nonzero"/></clipPath><clipPath id="dafac81b39"><path d="M 35.027344 17.101562 L 363.917969 99.695312 L 329.277344 237.640625 L 0.386719 155.046875 Z M 35.027344 17.101562 " clip-rule="nonzero"/></clipPath><clipPath id="857208b2bf"><path d="M 35.027344 17.101562 L 363.917969 99.695312 L 329.277344 237.640625 L 0.386719 155.046875 Z M 35.027344 17.101562 " clip-rule="nonzero"/></clipPath><clipPath id="e53c66df78"><path d="M 284 174 L 333 174 L 333 189 L 284 189 Z M 284 174 " clip-rule="nonzero"/></clipPath><clipPath id="e42c208c4b"><path d="M 35.027344 17.101562 L 363.917969 99.695312 L 329.277344 237.640625 L 0.386719 155.046875 Z M 35.027344 17.101562 " clip-rule="nonzero"/></clipPath><clipPath id="58f9a2b3b6"><path d="M 35.027344 17.101562 L 363.917969 99.695312 L 329.277344 237.640625 L 0.386719 155.046875 Z M 35.027344 17.101562 " clip-rule="nonzero"/></clipPath><clipPath id="dbfb9a8077"><path d="M 285 172 L 334 172 L 334 186 L 285 186 Z M 285 172 " clip-rule="nonzero"/></clipPath><clipPath id="4ee2dd83cc"><path d="M 35.027344 17.101562 L 363.917969 99.695312 L 329.277344 237.640625 L 0.386719 155.046875 Z M 35.027344 17.101562 " clip-rule="nonzero"/></clipPath><clipPath id="a4dc8300de"><path d="M 35.027344 17.101562 L 363.917969 99.695312 L 329.277344 237.640625 L 0.386719 155.046875 Z M 35.027344 17.101562 " clip-rule="nonzero"/></clipPath><clipPath id="1b757be555"><path d="M 286 170 L 335 170 L 335 184 L 286 184 Z M 286 170 " clip-rule="nonzero"/></clipPath><clipPath id="4b95c8bfcb"><path d="M 35.027344 17.101562 L 363.917969 99.695312 L 329.277344 237.640625 L 0.386719 155.046875 Z M 35.027344 17.101562 " clip-rule="nonzero"/></clipPath><clipPath id="37ccdd2232"><path d="M 35.027344 17.101562 L 363.917969 99.695312 L 329.277344 237.640625 L 0.386719 155.046875 Z M 35.027344 17.101562 " clip-rule="nonzero"/></clipPath><clipPath id="ad6f52cc48"><path d="M 286 168 L 335 168 L 335 181 L 286 181 Z M 286 168 " clip-rule="nonzero"/></clipPath><clipPath id="f3bee1cffb"><path d="M 35.027344 17.101562 L 363.917969 99.695312 L 329.277344 237.640625 L 0.386719 155.046875 Z M 35.027344 17.101562 " clip-rule="nonzero"/></clipPath><clipPath id="c8c27259c3"><path d="M 35.027344 17.101562 L 363.917969 99.695312 L 329.277344 237.640625 L 0.386719 155.046875 Z M 35.027344 17.101562 " clip-rule="nonzero"/></clipPath><clipPath id="9c052f0366"><path d="M 287 165 L 336 165 L 336 180 L 287 180 Z M 287 165 " clip-rule="nonzero"/></clipPath><clipPath id="5570cfb014"><path d="M 35.027344 17.101562 L 363.917969 99.695312 L 329.277344 237.640625 L 0.386719 155.046875 Z M 35.027344 17.101562 " clip-rule="nonzero"/></clipPath><clipPath id="af4094a754"><path d="M 35.027344 17.101562 L 363.917969 99.695312 L 329.277344 237.640625 L 0.386719 155.046875 Z M 35.027344 17.101562 " clip-rule="nonzero"/></clipPath><clipPath id="0c799d6a5f"><path d="M 287 163 L 336 163 L 336 177 L 287 177 Z M 287 163 " clip-rule="nonzero"/></clipPath><clipPath id="e15ae3d80a"><path d="M 35.027344 17.101562 L 363.917969 99.695312 L 329.277344 237.640625 L 0.386719 155.046875 Z M 35.027344 17.101562 " clip-rule="nonzero"/></clipPath><clipPath id="af6eaccf18"><path d="M 35.027344 17.101562 L 363.917969 99.695312 L 329.277344 237.640625 L 0.386719 155.046875 Z M 35.027344 17.101562 " clip-rule="nonzero"/></clipPath><clipPath id="f4732f7d90"><path d="M 288 161 L 337 161 L 337 175 L 288 175 Z M 288 161 " clip-rule="nonzero"/></clipPath><clipPath id="66c65a688b"><path d="M 35.027344 17.101562 L 363.917969 99.695312 L 329.277344 237.640625 L 0.386719 155.046875 Z M 35.027344 17.101562 " clip-rule="nonzero"/></clipPath><clipPath id="c71bf62d68"><path d="M 35.027344 17.101562 L 363.917969 99.695312 L 329.277344 237.640625 L 0.386719 155.046875 Z M 35.027344 17.101562 " clip-rule="nonzero"/></clipPath><clipPath id="d1a427af29"><path d="M 288 158 L 337 158 L 337 173 L 288 173 Z M 288 158 " clip-rule="nonzero"/></clipPath><clipPath id="931225f914"><path d="M 35.027344 17.101562 L 363.917969 99.695312 L 329.277344 237.640625 L 0.386719 155.046875 Z M 35.027344 17.101562 " clip-rule="nonzero"/></clipPath><clipPath id="a302f59151"><path d="M 35.027344 17.101562 L 363.917969 99.695312 L 329.277344 237.640625 L 0.386719 155.046875 Z M 35.027344 17.101562 " clip-rule="nonzero"/></clipPath><clipPath id="83b9d0e07a"><path d="M 289 157 L 338 157 L 338 171 L 289 171 Z M 289 157 " clip-rule="nonzero"/></clipPath><clipPath id="fc30fd5487"><path d="M 35.027344 17.101562 L 363.917969 99.695312 L 329.277344 237.640625 L 0.386719 155.046875 Z M 35.027344 17.101562 " clip-rule="nonzero"/></clipPath><clipPath id="bc66bd9be0"><path d="M 35.027344 17.101562 L 363.917969 99.695312 L 329.277344 237.640625 L 0.386719 155.046875 Z M 35.027344 17.101562 " clip-rule="nonzero"/></clipPath><clipPath id="b7dd115d63"><path d="M 300 114 L 349 114 L 349 128 L 300 128 Z M 300 114 " clip-rule="nonzero"/></clipPath><clipPath id="8ab75d477e"><path d="M 35.027344 17.101562 L 363.917969 99.695312 L 329.277344 237.640625 L 0.386719 155.046875 Z M 35.027344 17.101562 " clip-rule="nonzero"/></clipPath><clipPath id="01b2920440"><path d="M 35.027344 17.101562 L 363.917969 99.695312 L 329.277344 237.640625 L 0.386719 155.046875 Z M 35.027344 17.101562 " clip-rule="nonzero"/></clipPath><clipPath id="1abb75dfaf"><path d="M 299 116 L 348 116 L 348 130 L 299 130 Z M 299 116 " clip-rule="nonzero"/></clipPath><clipPath id="04384cb0a7"><path d="M 35.027344 17.101562 L 363.917969 99.695312 L 329.277344 237.640625 L 0.386719 155.046875 Z M 35.027344 17.101562 " clip-rule="nonzero"/></clipPath><clipPath id="1fccea7e6b"><path d="M 35.027344 17.101562 L 363.917969 99.695312 L 329.277344 237.640625 L 0.386719 155.046875 Z M 35.027344 17.101562 " clip-rule="nonzero"/></clipPath><clipPath id="3b15158d1a"><path d="M 298 118 L 348 118 L 348 133 L 298 133 Z M 298 118 " clip-rule="nonzero"/></clipPath><clipPath id="9969115914"><path d="M 35.027344 17.101562 L 363.917969 99.695312 L 329.277344 237.640625 L 0.386719 155.046875 Z M 35.027344 17.101562 " clip-rule="nonzero"/></clipPath><clipPath id="cdc976f320"><path d="M 35.027344 17.101562 L 363.917969 99.695312 L 329.277344 237.640625 L 0.386719 155.046875 Z M 35.027344 17.101562 " clip-rule="nonzero"/></clipPath><clipPath id="dc6b60b4a2"><path d="M 298 120 L 347 120 L 347 135 L 298 135 Z M 298 120 " clip-rule="nonzero"/></clipPath><clipPath id="d15c24037d"><path d="M 35.027344 17.101562 L 363.917969 99.695312 L 329.277344 237.640625 L 0.386719 155.046875 Z M 35.027344 17.101562 " clip-rule="nonzero"/></clipPath><clipPath id="b7b89aba6d"><path d="M 35.027344 17.101562 L 363.917969 99.695312 L 329.277344 237.640625 L 0.386719 155.046875 Z M 35.027344 17.101562 " clip-rule="nonzero"/></clipPath><clipPath id="d4a3818ffc"><path d="M 297 123 L 346 123 L 346 137 L 297 137 Z M 297 123 " clip-rule="nonzero"/></clipPath><clipPath id="4c6e090d7f"><path d="M 35.027344 17.101562 L 363.917969 99.695312 L 329.277344 237.640625 L 0.386719 155.046875 Z M 35.027344 17.101562 " clip-rule="nonzero"/></clipPath><clipPath id="56c9e05929"><path d="M 35.027344 17.101562 L 363.917969 99.695312 L 329.277344 237.640625 L 0.386719 155.046875 Z M 35.027344 17.101562 " clip-rule="nonzero"/></clipPath><clipPath id="267294c8d8"><path d="M 297 124 L 346 124 L 346 139 L 297 139 Z M 297 124 " clip-rule="nonzero"/></clipPath><clipPath id="68eec6e66a"><path d="M 35.027344 17.101562 L 363.917969 99.695312 L 329.277344 237.640625 L 0.386719 155.046875 Z M 35.027344 17.101562 " clip-rule="nonzero"/></clipPath><clipPath id="afd29d3887"><path d="M 35.027344 17.101562 L 363.917969 99.695312 L 329.277344 237.640625 L 0.386719 155.046875 Z M 35.027344 17.101562 " clip-rule="nonzero"/></clipPath><clipPath id="a45d383809"><path d="M 296 127 L 345 127 L 345 141 L 296 141 Z M 296 127 " clip-rule="nonzero"/></clipPath><clipPath id="95a197f6c5"><path d="M 35.027344 17.101562 L 363.917969 99.695312 L 329.277344 237.640625 L 0.386719 155.046875 Z M 35.027344 17.101562 " clip-rule="nonzero"/></clipPath><clipPath id="4ab917528b"><path d="M 35.027344 17.101562 L 363.917969 99.695312 L 329.277344 237.640625 L 0.386719 155.046875 Z M 35.027344 17.101562 " clip-rule="nonzero"/></clipPath><clipPath id="5fdf5afd37"><path d="M 296 129 L 345 129 L 345 144 L 296 144 Z M 296 129 " clip-rule="nonzero"/></clipPath><clipPath id="43808cb54f"><path d="M 35.027344 17.101562 L 363.917969 99.695312 L 329.277344 237.640625 L 0.386719 155.046875 Z M 35.027344 17.101562 " clip-rule="nonzero"/></clipPath><clipPath id="02cee4d355"><path d="M 35.027344 17.101562 L 363.917969 99.695312 L 329.277344 237.640625 L 0.386719 155.046875 Z M 35.027344 17.101562 " clip-rule="nonzero"/></clipPath><clipPath id="0e4f708cf3"><path d="M 295 132 L 344 132 L 344 146 L 295 146 Z M 295 132 " clip-rule="nonzero"/></clipPath><clipPath id="35f38d23ed"><path d="M 35.027344 17.101562 L 363.917969 99.695312 L 329.277344 237.640625 L 0.386719 155.046875 Z M 35.027344 17.101562 " clip-rule="nonzero"/></clipPath><clipPath id="8d8aeb71ac"><path d="M 35.027344 17.101562 L 363.917969 99.695312 L 329.277344 237.640625 L 0.386719 155.046875 Z M 35.027344 17.101562 " clip-rule="nonzero"/></clipPath><clipPath id="a2b736679a"><path d="M 295 133 L 344 133 L 344 148 L 295 148 Z M 295 133 " clip-rule="nonzero"/></clipPath><clipPath id="1823dd63b3"><path d="M 35.027344 17.101562 L 363.917969 99.695312 L 329.277344 237.640625 L 0.386719 155.046875 Z M 35.027344 17.101562 " clip-rule="nonzero"/></clipPath><clipPath id="317e24d989"><path d="M 35.027344 17.101562 L 363.917969 99.695312 L 329.277344 237.640625 L 0.386719 155.046875 Z M 35.027344 17.101562 " clip-rule="nonzero"/></clipPath><clipPath id="bca74309f2"><path d="M 294 136 L 343 136 L 343 150 L 294 150 Z M 294 136 " clip-rule="nonzero"/></clipPath><clipPath id="7d589c215f"><path d="M 35.027344 17.101562 L 363.917969 99.695312 L 329.277344 237.640625 L 0.386719 155.046875 Z M 35.027344 17.101562 " clip-rule="nonzero"/></clipPath><clipPath id="7d20589a50"><path d="M 35.027344 17.101562 L 363.917969 99.695312 L 329.277344 237.640625 L 0.386719 155.046875 Z M 35.027344 17.101562 " clip-rule="nonzero"/></clipPath><clipPath id="6457a1a1dd"><path d="M 294 138 L 343 138 L 343 152 L 294 152 Z M 294 138 " clip-rule="nonzero"/></clipPath><clipPath id="3c48ef3ad0"><path d="M 35.027344 17.101562 L 363.917969 99.695312 L 329.277344 237.640625 L 0.386719 155.046875 Z M 35.027344 17.101562 " clip-rule="nonzero"/></clipPath><clipPath id="74c09be366"><path d="M 35.027344 17.101562 L 363.917969 99.695312 L 329.277344 237.640625 L 0.386719 155.046875 Z M 35.027344 17.101562 " clip-rule="nonzero"/></clipPath><clipPath id="e1868aa18f"><path d="M 293 141 L 342 141 L 342 154 L 293 154 Z M 293 141 " clip-rule="nonzero"/></clipPath><clipPath id="721e33587a"><path d="M 35.027344 17.101562 L 363.917969 99.695312 L 329.277344 237.640625 L 0.386719 155.046875 Z M 35.027344 17.101562 " clip-rule="nonzero"/></clipPath><clipPath id="c6dca07ff1"><path d="M 35.027344 17.101562 L 363.917969 99.695312 L 329.277344 237.640625 L 0.386719 155.046875 Z M 35.027344 17.101562 " clip-rule="nonzero"/></clipPath><clipPath id="71d3f2342e"><path d="M 292 142 L 342 142 L 342 157 L 292 157 Z M 292 142 " clip-rule="nonzero"/></clipPath><clipPath id="ff8f472619"><path d="M 35.027344 17.101562 L 363.917969 99.695312 L 329.277344 237.640625 L 0.386719 155.046875 Z M 35.027344 17.101562 " clip-rule="nonzero"/></clipPath><clipPath id="f0e5cca947"><path d="M 35.027344 17.101562 L 363.917969 99.695312 L 329.277344 237.640625 L 0.386719 155.046875 Z M 35.027344 17.101562 " clip-rule="nonzero"/></clipPath><clipPath id="ac60a9049c"><path d="M 292 145 L 341 145 L 341 159 L 292 159 Z M 292 145 " clip-rule="nonzero"/></clipPath><clipPath id="696f1fed37"><path d="M 35.027344 17.101562 L 363.917969 99.695312 L 329.277344 237.640625 L 0.386719 155.046875 Z M 35.027344 17.101562 " clip-rule="nonzero"/></clipPath><clipPath id="09e7de0622"><path d="M 35.027344 17.101562 L 363.917969 99.695312 L 329.277344 237.640625 L 0.386719 155.046875 Z M 35.027344 17.101562 " clip-rule="nonzero"/></clipPath><clipPath id="b2d1cd47b4"><path d="M 291 147 L 340 147 L 340 161 L 291 161 Z M 291 147 " clip-rule="nonzero"/></clipPath><clipPath id="df5896869d"><path d="M 35.027344 17.101562 L 363.917969 99.695312 L 329.277344 237.640625 L 0.386719 155.046875 Z M 35.027344 17.101562 " clip-rule="nonzero"/></clipPath><clipPath id="05f375173f"><path d="M 35.027344 17.101562 L 363.917969 99.695312 L 329.277344 237.640625 L 0.386719 155.046875 Z M 35.027344 17.101562 " clip-rule="nonzero"/></clipPath><clipPath id="87c592f04c"><path d="M 291 149 L 340 149 L 340 164 L 291 164 Z M 291 149 " clip-rule="nonzero"/></clipPath><clipPath id="dec1c84661"><path d="M 35.027344 17.101562 L 363.917969 99.695312 L 329.277344 237.640625 L 0.386719 155.046875 Z M 35.027344 17.101562 " clip-rule="nonzero"/></clipPath><clipPath id="d6efe86056"><path d="M 35.027344 17.101562 L 363.917969 99.695312 L 329.277344 237.640625 L 0.386719 155.046875 Z M 35.027344 17.101562 " clip-rule="nonzero"/></clipPath><clipPath id="6a9da4ce5e"><path d="M 290 151 L 339 151 L 339 165 L 290 165 Z M 290 151 " clip-rule="nonzero"/></clipPath><clipPath id="03b0ef9935"><path d="M 35.027344 17.101562 L 363.917969 99.695312 L 329.277344 237.640625 L 0.386719 155.046875 Z M 35.027344 17.101562 " clip-rule="nonzero"/></clipPath><clipPath id="75cd48728d"><path d="M 35.027344 17.101562 L 363.917969 99.695312 L 329.277344 237.640625 L 0.386719 155.046875 Z M 35.027344 17.101562 " clip-rule="nonzero"/></clipPath><clipPath id="2515bca8aa"><path d="M 289 155 L 338 155 L 338 169 L 289 169 Z M 289 155 " clip-rule="nonzero"/></clipPath><clipPath id="96c6164fa8"><path d="M 35.027344 17.101562 L 363.917969 99.695312 L 329.277344 237.640625 L 0.386719 155.046875 Z M 35.027344 17.101562 " clip-rule="nonzero"/></clipPath><clipPath id="3609ec5160"><path d="M 35.027344 17.101562 L 363.917969 99.695312 L 329.277344 237.640625 L 0.386719 155.046875 Z M 35.027344 17.101562 " clip-rule="nonzero"/></clipPath><clipPath id="224c5e1eb2"><path d="M 290 153 L 339 153 L 339 167 L 290 167 Z M 290 153 " clip-rule="nonzero"/></clipPath><clipPath id="223ad37c1e"><path d="M 35.027344 17.101562 L 363.917969 99.695312 L 329.277344 237.640625 L 0.386719 155.046875 Z M 35.027344 17.101562 " clip-rule="nonzero"/></clipPath><clipPath id="127878dd41"><path d="M 35.027344 17.101562 L 363.917969 99.695312 L 329.277344 237.640625 L 0.386719 155.046875 Z M 35.027344 17.101562 " clip-rule="nonzero"/></clipPath></defs><g clip-path="url(#f22b8551d2)"><path fill="#f6f4f5" d="M 288.945312 119.480469 L 288.945312 116.164062 C 287.519531 116.164062 286.363281 115.007812 286.363281 113.582031 C 286.363281 112.15625 287.519531 111 288.945312 111 L 288.945312 107.679688 C 287.519531 107.679688 286.363281 106.523438 286.363281 105.101562 C 286.363281 103.675781 287.519531 102.519531 288.945312 102.519531 L 288.945312 99.199219 C 287.519531 99.199219 286.363281 98.042969 286.363281 96.617188 C 286.363281 95.191406 287.519531 94.039062 288.945312 94.039062 L 288.945312 90.71875 C 287.519531 90.71875 286.363281 89.5625 286.363281 88.136719 C 286.363281 86.710938 287.519531 85.554688 288.945312 85.554688 L 288.945312 82.234375 C 287.519531 82.234375 286.363281 81.078125 286.363281 79.65625 C 286.363281 78.226562 287.519531 77.074219 288.945312 77.074219 L 288.945312 73.753906 C 287.519531 73.753906 286.363281 72.597656 286.363281 71.171875 C 286.363281 69.746094 287.519531 68.589844 288.945312 68.589844 L 288.945312 65.273438 C 287.519531 65.273438 286.363281 64.117188 286.363281 62.691406 C 286.363281 61.265625 287.519531 60.109375 288.945312 60.109375 L 288.945312 56.792969 C 287.519531 56.792969 286.363281 55.632812 286.363281 54.207031 C 286.363281 52.78125 287.519531 51.625 288.945312 51.625 L 288.945312 48.3125 C 287.519531 48.3125 286.363281 47.152344 286.363281 45.726562 C 286.363281 44.300781 287.519531 43.144531 288.945312 43.144531 L 288.945312 39.828125 C 287.519531 39.828125 286.363281 38.671875 286.363281 37.246094 C 286.363281 35.820312 287.519531 34.664062 288.945312 34.664062 L 288.945312 31.347656 C 287.519531 31.347656 286.363281 30.191406 286.363281 28.765625 C 286.363281 27.339844 287.519531 26.179688 288.945312 26.179688 L 288.945312 22.863281 C 287.988281 22.863281 287.160156 22.34375 286.714844 21.574219 L 33.015625 21.574219 L 33.015625 120.40625 L 286.96875 120.40625 C 287.441406 119.839844 288.152344 119.480469 288.945312 119.480469 " fill-opacity="1" fill-rule="nonzero"/></g><g clip-path="url(#d21627e5b3)"><path fill="#032b22" d="M 286.363281 139.027344 C 286.363281 137.601562 287.519531 136.445312 288.945312 136.445312 L 288.945312 133.125 C 287.519531 133.125 286.363281 131.96875 286.363281 130.546875 C 286.363281 129.121094 287.519531 127.964844 288.945312 127.964844 L 288.945312 124.644531 C 287.519531 124.644531 286.363281 123.488281 286.363281 122.0625 C 286.363281 121.429688 286.589844 120.855469 286.96875 120.40625 L 33.015625 120.40625 L 33.015625 132.835938 C 33.015625 138.089844 37.273438 142.347656 42.527344 142.347656 L 288.945312 142.347656 L 288.945312 141.609375 C 287.519531 141.609375 286.363281 140.453125 286.363281 139.027344 " fill-opacity="1" fill-rule="nonzero"/></g><g clip-path="url(#ba3635c043)"><path fill="#032b22" d="M 286.363281 20.285156 C 286.363281 18.859375 287.519531 17.699219 288.945312 17.699219 L 288.945312 14.382812 C 287.519531 14.382812 286.363281 13.226562 286.363281 11.800781 C 286.363281 10.375 287.519531 9.21875 288.945312 9.21875 L 288.945312 5.902344 C 287.519531 5.902344 286.363281 4.746094 286.363281 3.320312 C 286.363281 1.894531 287.519531 0.738281 288.945312 0.738281 L 288.945312 0 L 42.527344 0 C 37.273438 0 33.015625 4.257812 33.015625 9.511719 L 33.015625 21.574219 L 286.714844 21.574219 C 286.492188 21.195312 286.363281 20.753906 286.363281 20.285156 " fill-opacity="1" fill-rule="nonzero"/></g><path fill="#032b22" d="M 291.527344 3.320312 C 291.527344 4.746094 290.371094 5.902344 288.945312 5.902344 L 288.945312 9.21875 C 290.371094 9.21875 291.527344 10.375 291.527344 11.800781 C 291.527344 13.226562 290.371094 14.382812 288.945312 14.382812 L 288.945312 17.699219 C 290.371094 17.699219 291.527344 18.859375 291.527344 20.285156 C 291.527344 20.753906 291.398438 21.195312 291.179688 21.574219 L 371.917969 21.574219 L 371.917969 9.511719 C 371.917969 4.257812 367.660156 0 362.410156 0 L 288.945312 0 L 288.945312 0.738281 C 290.371094 0.738281 291.527344 1.894531 291.527344 3.320312 " fill-opacity="1" fill-rule="nonzero"/><path fill="#f6f4f5" d="M 291.179688 21.574219 C 290.730469 22.34375 289.898438 22.863281 288.945312 22.863281 L 288.945312 26.179688 C 290.371094 26.179688 291.527344 27.339844 291.527344 28.765625 C 291.527344 30.191406 290.371094 31.347656 288.945312 31.347656 L 288.945312 34.664062 C 290.371094 34.664062 291.527344 35.820312 291.527344 37.246094 C 291.527344 38.671875 290.371094 39.828125 288.945312 39.828125 L 288.945312 43.144531 C 290.371094 43.144531 291.527344 44.300781 291.527344 45.726562 C 291.527344 47.152344 290.371094 48.3125 288.945312 48.3125 L 288.945312 51.625 C 290.371094 51.625 291.527344 52.78125 291.527344 54.207031 C 291.527344 55.632812 290.371094 56.792969 288.945312 56.792969 L 288.945312 60.109375 C 290.371094 60.109375 291.527344 61.265625 291.527344 62.691406 C 291.527344 64.117188 290.371094 65.273438 288.945312 65.273438 L 288.945312 68.589844 C 290.371094 68.589844 291.527344 69.746094 291.527344 71.171875 C 291.527344 72.597656 290.371094 73.753906 288.945312 73.753906 L 288.945312 77.074219 C 290.371094 77.074219 291.527344 78.226562 291.527344 79.65625 C 291.527344 81.078125 290.371094 82.234375 288.945312 82.234375 L 288.945312 85.554688 C 290.371094 85.554688 291.527344 86.710938 291.527344 88.136719 C 291.527344 89.5625 290.371094 90.71875 288.945312 90.71875 L 288.945312 94.039062 C 290.371094 94.039062 291.527344 95.191406 291.527344 96.617188 C 291.527344 98.042969 290.371094 99.199219 288.945312 99.199219 L 288.945312 102.519531 C 290.371094 102.519531 291.527344 103.675781 291.527344 105.101562 C 291.527344 106.523438 290.371094 107.679688 288.945312 107.679688 L 288.945312 111 C 290.371094 111 291.527344 112.15625 291.527344 113.582031 C 291.527344 115.007812 290.371094 116.164062 288.945312 116.164062 L 288.945312 119.480469 C 289.738281 119.480469 290.449219 119.839844 290.917969 120.40625 L 371.917969 120.40625 L 371.917969 21.574219 L 291.179688 21.574219 " fill-opacity="1" fill-rule="nonzero"/><g clip-path="url(#d435bcf54d)"><path fill="#032b22" d="M 291.527344 122.0625 C 291.527344 123.488281 290.371094 124.644531 288.945312 124.644531 L 288.945312 127.964844 C 290.371094 127.964844 291.527344 129.121094 291.527344 130.546875 C 291.527344 131.96875 290.371094 133.125 288.945312 133.125 L 288.945312 136.445312 C 290.371094 136.445312 291.527344 137.601562 291.527344 139.027344 C 291.527344 140.453125 290.371094 141.609375 288.945312 141.609375 L 288.945312 142.347656 L 362.410156 142.347656 C 367.660156 142.347656 371.917969 138.089844 371.917969 132.835938 L 371.917969 120.40625 L 290.917969 120.40625 C 291.296875 120.855469 291.527344 121.429688 291.527344 122.0625 " fill-opacity="1" fill-rule="nonzero"/></g><path fill="#212121" d="M 92.417969 57.355469 C 92.417969 57.355469 97.707031 51.664062 96.175781 49.535156 L 95.996094 49.351562 C 93.863281 47.820312 88.171875 53.109375 88.171875 53.109375 L 79.691406 61.589844 C 79.265625 62.015625 78.671875 62.226562 78.074219 62.15625 L 74.300781 61.726562 L 76.296875 59.726562 C 76.589844 59.4375 76.589844 58.96875 76.296875 58.675781 L 75.882812 58.261719 C 75.59375 57.972656 75.125 57.972656 74.835938 58.261719 L 73.6875 59.40625 C 73.359375 59.734375 73.066406 60.097656 72.8125 60.488281 L 72.164062 61.480469 L 53.921875 59.402344 L 52.195312 61.132812 L 67.007812 66.558594 L 71.363281 69.808594 L 63.507812 78.738281 L 55.886719 78.738281 L 54.324219 80.304688 L 60.582031 83.433594 L 60.964844 83.816406 L 61.710938 84.566406 L 62.09375 84.949219 L 65.226562 91.203125 L 66.789062 89.636719 L 66.789062 82.015625 L 75.722656 74.167969 L 78.96875 78.523438 L 84.398438 93.335938 L 86.125 91.601562 L 84.046875 73.363281 L 85.042969 72.714844 C 85.429688 72.460938 85.792969 72.167969 86.121094 71.839844 L 87.265625 70.691406 C 87.554688 70.40625 87.554688 69.933594 87.265625 69.644531 L 86.847656 69.230469 C 86.558594 68.9375 86.09375 68.9375 85.800781 69.230469 L 83.804688 71.226562 L 83.371094 67.453125 C 83.300781 66.859375 83.507812 66.261719 83.9375 65.835938 L 92.417969 57.355469 " fill-opacity="1" fill-rule="nonzero"/><path fill="#dfe2e8" d="M 270.875 51.527344 L 114.515625 51.527344 L 114.515625 34.664062 L 270.875 34.664062 L 270.875 51.527344 " fill-opacity="1" fill-rule="nonzero"/><path fill="#dfe2e8" d="M 270.875 79.636719 L 114.515625 79.636719 L 114.515625 62.769531 L 270.875 62.769531 L 270.875 79.636719 " fill-opacity="1" fill-rule="nonzero"/><path fill="#dfe2e8" d="M 270.875 107.742188 L 114.515625 107.742188 L 114.515625 90.875 L 270.875 90.875 L 270.875 107.742188 " fill-opacity="1" fill-rule="nonzero"/><path fill="#212121" d="M 363.3125 112.867188 L 363.3125 113.738281 L 314.144531 113.738281 L 314.144531 112.867188 L 363.3125 112.867188 " fill-opacity="1" fill-rule="nonzero"/><path fill="#212121" d="M 363.3125 110.542969 L 363.3125 111.417969 L 314.144531 111.417969 L 314.144531 110.542969 L 363.3125 110.542969 " fill-opacity="1" fill-rule="nonzero"/><path fill="#212121" d="M 363.3125 107.621094 L 363.3125 109.097656 L 314.144531 109.097656 L 314.144531 107.621094 L 363.3125 107.621094 " fill-opacity="1" fill-rule="nonzero"/><path fill="#212121" d="M 363.3125 105.089844 L 363.3125 106.773438 L 314.144531 106.773438 L 314.144531 105.089844 L 363.3125 105.089844 " fill-opacity="1" fill-rule="nonzero"/><path fill="#212121" d="M 363.3125 103.578125 L 363.3125 104.449219 L 314.144531 104.449219 L 314.144531 103.578125 L 363.3125 103.578125 " fill-opacity="1" fill-rule="nonzero"/><path fill="#212121" d="M 363.3125 101.253906 L 363.3125 102.742188 L 314.144531 102.742188 L 314.144531 101.253906 L 363.3125 101.253906 " fill-opacity="1" fill-rule="nonzero"/><path fill="#212121" d="M 363.3125 98.929688 L 363.3125 99.804688 L 314.144531 99.804688 L 314.144531 98.929688 L 363.3125 98.929688 " fill-opacity="1" fill-rule="nonzero"/><path fill="#212121" d="M 363.3125 95.871094 L 363.3125 97.480469 L 314.144531 97.480469 L 314.144531 95.871094 L 363.3125 95.871094 " fill-opacity="1" fill-rule="nonzero"/><path fill="#212121" d="M 363.3125 94.285156 L 363.3125 95.160156 L 314.144531 95.160156 L 314.144531 94.285156 L 363.3125 94.285156 " fill-opacity="1" fill-rule="nonzero"/><path fill="#212121" d="M 363.3125 91.960938 L 363.3125 93.523438 L 314.144531 93.523438 L 314.144531 91.960938 L 363.3125 91.960938 " fill-opacity="1" fill-rule="nonzero"/><path fill="#212121" d="M 363.3125 89.636719 L 363.3125 90.515625 L 314.144531 90.515625 L 314.144531 89.636719 L 363.3125 89.636719 " fill-opacity="1" fill-rule="nonzero"/><path fill="#212121" d="M 363.3125 87.316406 L 363.3125 88.730469 L 314.144531 88.730469 L 314.144531 87.316406 L 363.3125 87.316406 " fill-opacity="1" fill-rule="nonzero"/><path fill="#212121" d="M 363.3125 85.433594 L 363.3125 85.867188 L 314.144531 85.867188 L 314.144531 85.433594 L 363.3125 85.433594 " fill-opacity="1" fill-rule="nonzero"/><path fill="#212121" d="M 363.3125 82.671875 L 363.3125 84.664062 L 314.144531 84.664062 L 314.144531 82.671875 L 363.3125 82.671875 " fill-opacity="1" fill-rule="nonzero"/><path fill="#212121" d="M 363.3125 80.347656 L 363.3125 81.226562 L 314.144531 81.226562 L 314.144531 80.347656 L 363.3125 80.347656 " fill-opacity="1" fill-rule="nonzero"/><path fill="#212121" d="M 363.3125 78.027344 L 363.3125 79.421875 L 314.144531 79.421875 L 314.144531 78.027344 L 363.3125 78.027344 " fill-opacity="1" fill-rule="nonzero"/><path fill="#212121" d="M 363.3125 75.703125 L 363.3125 77.617188 L 314.144531 77.617188 L 314.144531 75.703125 L 363.3125 75.703125 " fill-opacity="1" fill-rule="nonzero"/><path fill="#212121" d="M 363.3125 74.101562 L 363.3125 74.980469 L 314.144531 74.980469 L 314.144531 74.101562 L 363.3125 74.101562 " fill-opacity="1" fill-rule="nonzero"/><path fill="#212121" d="M 363.3125 30.378906 L 363.3125 29.5 L 314.144531 29.5 L 314.144531 30.378906 L 363.3125 30.378906 " fill-opacity="1" fill-rule="nonzero"/><path fill="#212121" d="M 363.3125 32.695312 L 363.3125 31.824219 L 314.144531 31.824219 L 314.144531 32.695312 L 363.3125 32.695312 " fill-opacity="1" fill-rule="nonzero"/><path fill="#212121" d="M 363.3125 35.621094 L 363.3125 34.148438 L 314.144531 34.148438 L 314.144531 35.621094 L 363.3125 35.621094 " fill-opacity="1" fill-rule="nonzero"/><path fill="#212121" d="M 363.3125 38.152344 L 363.3125 36.46875 L 314.144531 36.46875 L 314.144531 38.152344 L 363.3125 38.152344 " fill-opacity="1" fill-rule="nonzero"/><path fill="#212121" d="M 363.3125 39.667969 L 363.3125 38.792969 L 314.144531 38.792969 L 314.144531 39.667969 L 363.3125 39.667969 " fill-opacity="1" fill-rule="nonzero"/><path fill="#212121" d="M 363.3125 41.988281 L 363.3125 40.503906 L 314.144531 40.503906 L 314.144531 41.988281 L 363.3125 41.988281 " fill-opacity="1" fill-rule="nonzero"/><path fill="#212121" d="M 363.3125 44.3125 L 363.3125 43.4375 L 314.144531 43.4375 L 314.144531 44.3125 L 363.3125 44.3125 " fill-opacity="1" fill-rule="nonzero"/><path fill="#212121" d="M 363.3125 47.367188 L 363.3125 45.757812 L 314.144531 45.757812 L 314.144531 47.367188 L 363.3125 47.367188 " fill-opacity="1" fill-rule="nonzero"/><path fill="#212121" d="M 363.3125 48.957031 L 363.3125 48.082031 L 314.144531 48.082031 L 314.144531 48.957031 L 363.3125 48.957031 " fill-opacity="1" fill-rule="nonzero"/><path fill="#212121" d="M 363.3125 51.277344 L 363.3125 49.71875 L 314.144531 49.71875 L 314.144531 51.277344 L 363.3125 51.277344 " fill-opacity="1" fill-rule="nonzero"/><path fill="#212121" d="M 363.3125 53.601562 L 363.3125 52.726562 L 314.144531 52.726562 L 314.144531 53.601562 L 363.3125 53.601562 " fill-opacity="1" fill-rule="nonzero"/><path fill="#212121" d="M 363.3125 55.925781 L 363.3125 54.507812 L 314.144531 54.507812 L 314.144531 55.925781 L 363.3125 55.925781 " fill-opacity="1" fill-rule="nonzero"/><path fill="#212121" d="M 363.3125 57.8125 L 363.3125 57.371094 L 314.144531 57.371094 L 314.144531 57.8125 L 363.3125 57.8125 " fill-opacity="1" fill-rule="nonzero"/><path fill="#212121" d="M 363.3125 60.570312 L 363.3125 58.574219 L 314.144531 58.574219 L 314.144531 60.570312 L 363.3125 60.570312 " fill-opacity="1" fill-rule="nonzero"/><path fill="#212121" d="M 363.3125 62.894531 L 363.3125 62.015625 L 314.144531 62.015625 L 314.144531 62.894531 L 363.3125 62.894531 " fill-opacity="1" fill-rule="nonzero"/><path fill="#212121" d="M 363.3125 65.214844 L 363.3125 63.816406 L 314.144531 63.816406 L 314.144531 65.214844 L 363.3125 65.214844 " fill-opacity="1" fill-rule="nonzero"/><path fill="#212121" d="M 363.3125 67.535156 L 363.3125 65.625 L 314.144531 65.625 L 314.144531 67.535156 L 363.3125 67.535156 " fill-opacity="1" fill-rule="nonzero"/><path fill="#212121" d="M 363.3125 69.136719 L 363.3125 68.261719 L 314.144531 68.261719 L 314.144531 69.136719 L 363.3125 69.136719 " fill-opacity="1" fill-rule="nonzero"/><path fill="#212121" d="M 363.3125 72.21875 L 363.3125 73.09375 L 314.144531 73.09375 L 314.144531 72.21875 L 363.3125 72.21875 " fill-opacity="1" fill-rule="nonzero"/><path fill="#212121" d="M 363.3125 69.898438 L 363.3125 70.773438 L 314.144531 70.773438 L 314.144531 69.898438 L 363.3125 69.898438 " fill-opacity="1" fill-rule="nonzero"/><g clip-path="url(#fbc44011cb)"><g clip-path="url(#82db29dd80)"><g clip-path="url(#6683eb6f98)"><path fill="#f6f4f5" d="M 254.117188 195.308594 L 254.925781 192.09375 C 253.542969 191.746094 252.703125 190.34375 253.050781 188.960938 C 253.394531 187.578125 254.800781 186.738281 256.183594 187.085938 L 256.992188 183.867188 C 255.609375 183.519531 254.769531 182.117188 255.113281 180.734375 C 255.460938 179.351562 256.863281 178.511719 258.25 178.859375 L 259.054688 175.640625 C 257.671875 175.292969 256.832031 173.890625 257.179688 172.507812 C 257.527344 171.125 258.929688 170.289062 260.3125 170.636719 L 261.121094 167.417969 C 259.738281 167.070312 258.898438 165.664062 259.246094 164.28125 C 259.59375 162.898438 260.996094 162.058594 262.378906 162.40625 L 263.1875 159.1875 C 261.804688 158.839844 260.964844 157.4375 261.3125 156.058594 C 261.660156 154.671875 263.0625 153.835938 264.445312 154.183594 L 265.253906 150.960938 C 263.871094 150.617188 263.03125 149.210938 263.378906 147.828125 C 263.726562 146.445312 265.128906 145.605469 266.511719 145.953125 L 267.320312 142.734375 C 265.9375 142.386719 265.097656 140.988281 265.445312 139.605469 C 265.792969 138.222656 267.195312 137.382812 268.578125 137.726562 L 269.386719 134.507812 C 268.003906 134.160156 267.164062 132.757812 267.511719 131.375 C 267.859375 129.992188 269.261719 129.152344 270.644531 129.5 L 271.453125 126.285156 C 270.066406 125.9375 269.226562 124.535156 269.574219 123.152344 C 269.921875 121.769531 271.328125 120.925781 272.710938 121.273438 L 273.519531 118.054688 C 272.132812 117.707031 271.292969 116.304688 271.640625 114.921875 C 271.988281 113.542969 273.390625 112.703125 274.773438 113.050781 L 275.582031 109.832031 C 274.199219 109.484375 273.359375 108.082031 273.707031 106.695312 C 274.054688 105.3125 275.457031 104.472656 276.839844 104.820312 L 277.648438 101.601562 C 276.722656 101.371094 276.046875 100.664062 275.800781 99.808594 L 29.742188 38.015625 L 5.671875 133.871094 L 251.976562 195.726562 C 252.574219 195.296875 253.347656 195.117188 254.117188 195.308594 " fill-opacity="1" fill-rule="nonzero"/></g></g></g><g clip-path="url(#c413ba9122)"><g clip-path="url(#fa62e5110e)"><g clip-path="url(#2cca4f714c)"><path fill="#00634d" d="M 246.851562 213.640625 C 247.199219 212.257812 248.601562 211.417969 249.984375 211.765625 L 250.792969 208.542969 C 249.410156 208.199219 248.570312 206.792969 248.917969 205.414062 C 249.265625 204.03125 250.667969 203.191406 252.050781 203.539062 L 252.859375 200.320312 C 251.476562 199.972656 250.636719 198.570312 250.984375 197.1875 C 251.136719 196.574219 251.5 196.070312 251.976562 195.726562 L 5.671875 133.871094 L 2.644531 145.929688 C 1.363281 151.023438 4.457031 156.191406 9.550781 157.46875 L 248.546875 217.488281 L 248.726562 216.773438 C 247.34375 216.425781 246.503906 215.023438 246.851562 213.640625 " fill-opacity="1" fill-rule="nonzero"/></g></g></g><g clip-path="url(#629e616050)"><g clip-path="url(#3c3a65d86e)"><g clip-path="url(#270316feb1)"><path fill="#00634d" d="M 275.773438 98.472656 C 276.121094 97.089844 277.523438 96.25 278.90625 96.597656 L 279.714844 93.378906 C 278.332031 93.03125 277.492188 91.625 277.839844 90.242188 C 278.1875 88.859375 279.589844 88.023438 280.972656 88.371094 L 281.78125 85.152344 C 280.398438 84.804688 279.558594 83.402344 279.90625 82.019531 C 280.253906 80.636719 281.65625 79.796875 283.039062 80.144531 L 283.21875 79.429688 L 44.222656 19.410156 C 39.125 18.128906 33.960938 21.222656 32.679688 26.316406 L 29.742188 38.015625 L 275.800781 99.808594 C 275.675781 99.386719 275.660156 98.929688 275.773438 98.472656 " fill-opacity="1" fill-rule="nonzero"/></g></g></g><g clip-path="url(#53c86ed936)"><g clip-path="url(#fd1d031e3b)"><g clip-path="url(#3eeb6a8de8)"><path fill="#00634d" d="M 284.914062 83.277344 C 284.566406 84.660156 283.164062 85.5 281.78125 85.152344 L 280.972656 88.371094 C 282.355469 88.71875 283.195312 90.117188 282.847656 91.5 C 282.5 92.882812 281.097656 93.722656 279.714844 93.378906 L 278.90625 96.597656 C 280.289062 96.945312 281.128906 98.347656 280.78125 99.730469 C 280.667969 100.1875 280.4375 100.582031 280.128906 100.894531 L 358.4375 120.5625 L 361.375 108.863281 C 362.65625 103.765625 359.5625 98.601562 354.472656 97.320312 L 283.21875 79.429688 L 283.039062 80.144531 C 284.421875 80.492188 285.261719 81.894531 284.914062 83.277344 " fill-opacity="1" fill-rule="nonzero"/></g></g></g><g clip-path="url(#55e6edb7df)"><g clip-path="url(#a1b1d8fdc7)"><g clip-path="url(#88dfa1a5ad)"><path fill="#f6f4f5" d="M 280.128906 100.894531 C 279.507812 101.535156 278.574219 101.835938 277.648438 101.601562 L 276.839844 104.820312 C 278.222656 105.167969 279.0625 106.570312 278.714844 107.957031 C 278.371094 109.339844 276.964844 110.179688 275.582031 109.832031 L 274.773438 113.050781 C 276.15625 113.398438 276.996094 114.800781 276.652344 116.179688 C 276.304688 117.5625 274.902344 118.402344 273.519531 118.054688 L 272.710938 121.273438 C 274.09375 121.621094 274.933594 123.027344 274.585938 124.410156 C 274.238281 125.792969 272.835938 126.632812 271.453125 126.285156 L 270.644531 129.5 C 272.027344 129.847656 272.867188 131.25 272.519531 132.632812 C 272.171875 134.015625 270.769531 134.855469 269.386719 134.507812 L 268.578125 137.726562 C 269.960938 138.074219 270.800781 139.480469 270.453125 140.863281 C 270.105469 142.246094 268.703125 143.082031 267.320312 142.734375 L 266.511719 145.953125 C 267.894531 146.300781 268.734375 147.703125 268.386719 149.085938 C 268.039062 150.46875 266.636719 151.308594 265.253906 150.960938 L 264.445312 154.183594 C 265.828125 154.527344 266.667969 155.929688 266.320312 157.316406 C 265.972656 158.695312 264.570312 159.535156 263.1875 159.1875 L 262.378906 162.40625 C 263.761719 162.753906 264.601562 164.15625 264.253906 165.539062 C 263.910156 166.921875 262.503906 167.761719 261.121094 167.417969 L 260.3125 170.636719 C 261.695312 170.984375 262.539062 172.382812 262.191406 173.765625 C 261.84375 175.148438 260.441406 175.988281 259.054688 175.640625 L 258.25 178.859375 C 259.632812 179.207031 260.472656 180.609375 260.125 181.992188 C 259.777344 183.375 258.375 184.214844 256.992188 183.867188 L 256.183594 187.085938 C 257.566406 187.433594 258.40625 188.835938 258.058594 190.21875 C 257.710938 191.601562 256.308594 192.441406 254.925781 192.09375 L 254.117188 195.308594 C 254.886719 195.503906 255.488281 196.027344 255.808594 196.6875 L 334.367188 216.417969 L 358.4375 120.5625 L 280.128906 100.894531 " fill-opacity="1" fill-rule="nonzero"/></g></g></g><g clip-path="url(#8694deb118)"><g clip-path="url(#ff80a3ebfc)"><g clip-path="url(#32b44deaf7)"><path fill="#00634d" d="M 255.992188 198.445312 C 255.644531 199.828125 254.242188 200.667969 252.859375 200.320312 L 252.050781 203.539062 C 253.433594 203.886719 254.273438 205.289062 253.925781 206.671875 C 253.578125 208.050781 252.175781 208.890625 250.792969 208.542969 L 249.984375 211.765625 C 251.367188 212.109375 252.207031 213.515625 251.859375 214.898438 C 251.511719 216.28125 250.109375 217.121094 248.726562 216.773438 L 248.546875 217.488281 L 319.800781 235.382812 C 324.894531 236.660156 330.058594 233.566406 331.339844 228.472656 L 334.367188 216.417969 L 255.808594 196.6875 C 256.066406 197.21875 256.144531 197.832031 255.992188 198.445312 " fill-opacity="1" fill-rule="nonzero"/></g></g></g><g clip-path="url(#5097cf1056)"><g clip-path="url(#ef5c3ffa85)"><g clip-path="url(#d837eabcd1)"><path fill="#212121" d="M 78.640625 87.1875 C 78.640625 87.1875 85.15625 82.957031 84.191406 80.519531 L 84.058594 80.296875 C 82.363281 78.292969 75.558594 82.039062 75.558594 82.039062 L 65.265625 88.199219 C 64.75 88.507812 64.121094 88.566406 63.5625 88.355469 L 60.003906 87.015625 L 62.429688 85.566406 C 62.78125 85.355469 62.894531 84.898438 62.683594 84.546875 L 62.382812 84.042969 C 62.171875 83.6875 61.71875 83.574219 61.367188 83.785156 L 59.976562 84.617188 C 59.578125 84.855469 59.207031 85.136719 58.863281 85.453125 L 57.992188 86.257812 L 40.808594 79.796875 L 38.707031 81.058594 L 51.753906 89.925781 L 55.1875 94.140625 L 45.394531 100.890625 L 38.003906 99.03125 L 36.101562 100.171875 L 41.414062 104.730469 L 41.691406 105.191406 L 42.230469 106.101562 L 42.507812 106.566406 L 44.023438 113.394531 L 45.917969 112.257812 L 47.773438 104.867188 L 58.351562 99.429688 L 60.441406 104.445312 L 62.097656 120.132812 L 64.195312 118.875 L 66.621094 100.675781 L 67.746094 100.289062 C 68.183594 100.140625 68.605469 99.945312 69.003906 99.703125 L 70.394531 98.871094 C 70.746094 98.664062 70.859375 98.207031 70.648438 97.855469 L 70.347656 97.347656 C 70.136719 96.996094 69.683594 96.882812 69.332031 97.09375 L 66.90625 98.546875 L 67.40625 94.78125 C 67.484375 94.1875 67.832031 93.65625 68.347656 93.347656 L 78.640625 87.1875 " fill-opacity="1" fill-rule="nonzero"/></g></g></g><g clip-path="url(#7c3e47a8ae)"><g clip-path="url(#c53f46e4c0)"><g clip-path="url(#ee64ce8ae0)"><path fill="#ebe7e7" d="M 253.140625 125.003906 L 101.492188 86.917969 L 105.597656 70.566406 L 257.25 108.648438 L 253.140625 125.003906 " fill-opacity="1" fill-rule="nonzero"/></g></g></g><g clip-path="url(#5d7689641f)"><g clip-path="url(#96273000ee)"><g clip-path="url(#466aa6e5bc)"><path fill="#ebe7e7" d="M 246.296875 152.265625 L 94.644531 114.183594 L 98.753906 97.824219 L 250.402344 135.90625 L 246.296875 152.265625 " fill-opacity="1" fill-rule="nonzero"/></g></g></g><g clip-path="url(#4a9c11639e)"><g clip-path="url(#fc786ff10a)"><g clip-path="url(#697fada7e6)"><path fill="#ebe7e7" d="M 239.449219 179.523438 L 87.800781 141.441406 L 91.90625 125.082031 L 243.558594 163.167969 L 239.449219 179.523438 " fill-opacity="1" fill-rule="nonzero"/></g></g></g><g clip-path="url(#15875fe01c)"><g clip-path="url(#b07e407643)"><g clip-path="url(#9b947855b6)"><path fill="#212121" d="M 327.859375 207.007812 L 327.644531 207.855469 L 279.957031 195.878906 L 280.167969 195.03125 L 327.859375 207.007812 " fill-opacity="1" fill-rule="nonzero"/></g></g></g><g clip-path="url(#886c63e905)"><g clip-path="url(#3a6f0a224d)"><g clip-path="url(#e0da33bbab)"><path fill="#212121" d="M 328.421875 204.753906 L 328.210938 205.605469 L 280.519531 193.628906 L 280.734375 192.78125 L 328.421875 204.753906 " fill-opacity="1" fill-rule="nonzero"/></g></g></g><g clip-path="url(#8f65110d62)"><g clip-path="url(#b7641b5779)"><g clip-path="url(#a3235bd6b6)"><path fill="#212121" d="M 329.136719 201.921875 L 328.777344 203.351562 L 281.085938 191.375 L 281.445312 189.945312 L 329.136719 201.921875 " fill-opacity="1" fill-rule="nonzero"/></g></g></g><g clip-path="url(#7a398f8171)"><g clip-path="url(#2a9be8abf8)"><g clip-path="url(#f967b796d2)"><path fill="#212121" d="M 329.75 199.46875 L 329.339844 201.101562 L 281.652344 189.125 L 282.0625 187.492188 L 329.75 199.46875 " fill-opacity="1" fill-rule="nonzero"/></g></g></g><g clip-path="url(#a061d8c255)"><g clip-path="url(#20844da264)"><g clip-path="url(#8992caea97)"><path fill="#212121" d="M 330.121094 198 L 329.90625 198.847656 L 282.21875 186.871094 L 282.429688 186.023438 L 330.121094 198 " fill-opacity="1" fill-rule="nonzero"/></g></g></g><g clip-path="url(#0e0280abd0)"><g clip-path="url(#08b2205f53)"><g clip-path="url(#423cb09606)"><path fill="#212121" d="M 330.6875 195.746094 L 330.324219 197.1875 L 282.632812 185.214844 L 282.996094 183.769531 L 330.6875 195.746094 " fill-opacity="1" fill-rule="nonzero"/></g></g></g><g clip-path="url(#696a06dff3)"><g clip-path="url(#e3622dfab6)"><g clip-path="url(#3d067d3058)"><path fill="#212121" d="M 331.25 193.492188 L 331.039062 194.339844 L 283.351562 182.363281 L 283.5625 181.515625 L 331.25 193.492188 " fill-opacity="1" fill-rule="nonzero"/></g></g></g><g clip-path="url(#6a2c12b9fb)"><g clip-path="url(#76fee8e8f1)"><g clip-path="url(#c15a5491ab)"><path fill="#212121" d="M 331.996094 190.527344 L 331.605469 192.085938 L 283.914062 180.109375 L 284.308594 178.550781 L 331.996094 190.527344 " fill-opacity="1" fill-rule="nonzero"/></g></g></g><g clip-path="url(#cb58777543)"><g clip-path="url(#dafac81b39)"><g clip-path="url(#857208b2bf)"><path fill="#212121" d="M 332.382812 188.988281 L 332.171875 189.835938 L 284.480469 177.863281 L 284.695312 177.011719 L 332.382812 188.988281 " fill-opacity="1" fill-rule="nonzero"/></g></g></g><g clip-path="url(#e53c66df78)"><g clip-path="url(#e42c208c4b)"><g clip-path="url(#58f9a2b3b6)"><path fill="#212121" d="M 332.949219 186.734375 L 332.570312 188.25 L 284.878906 176.273438 L 285.261719 174.757812 L 332.949219 186.734375 " fill-opacity="1" fill-rule="nonzero"/></g></g></g><g clip-path="url(#dbfb9a8077)"><g clip-path="url(#4ee2dd83cc)"><g clip-path="url(#a4dc8300de)"><path fill="#212121" d="M 333.515625 184.480469 L 333.300781 185.332031 L 285.613281 173.355469 L 285.824219 172.503906 L 333.515625 184.480469 " fill-opacity="1" fill-rule="nonzero"/></g></g></g><g clip-path="url(#1b757be555)"><g clip-path="url(#4b95c8bfcb)"><g clip-path="url(#37ccdd2232)"><path fill="#212121" d="M 334.082031 182.226562 L 333.734375 183.601562 L 286.046875 171.625 L 286.390625 170.25 L 334.082031 182.226562 " fill-opacity="1" fill-rule="nonzero"/></g></g></g><g clip-path="url(#ad6f52cc48)"><g clip-path="url(#f3bee1cffb)"><g clip-path="url(#c8c27259c3)"><path fill="#212121" d="M 334.539062 180.402344 L 334.433594 180.824219 L 286.742188 168.847656 L 286.851562 168.425781 L 334.539062 180.402344 " fill-opacity="1" fill-rule="nonzero"/></g></g></g><g clip-path="url(#9c052f0366)"><g clip-path="url(#5570cfb014)"><g clip-path="url(#af4094a754)"><path fill="#212121" d="M 335.210938 177.726562 L 334.726562 179.65625 L 287.035156 167.679688 L 287.523438 165.75 L 335.210938 177.726562 " fill-opacity="1" fill-rule="nonzero"/></g></g></g><g clip-path="url(#0c799d6a5f)"><g clip-path="url(#e15ae3d80a)"><g clip-path="url(#af6eaccf18)"><path fill="#212121" d="M 335.777344 175.472656 L 335.5625 176.320312 L 287.875 164.347656 L 288.089844 163.496094 L 335.777344 175.472656 " fill-opacity="1" fill-rule="nonzero"/></g></g></g><g clip-path="url(#f4732f7d90)"><g clip-path="url(#66c65a688b)"><g clip-path="url(#c71bf62d68)"><path fill="#212121" d="M 336.34375 173.21875 L 336.003906 174.570312 L 288.3125 162.597656 L 288.652344 161.242188 L 336.34375 173.21875 " fill-opacity="1" fill-rule="nonzero"/></g></g></g><g clip-path="url(#d1a427af29)"><g clip-path="url(#931225f914)"><g clip-path="url(#a302f59151)"><path fill="#212121" d="M 336.910156 170.964844 L 336.441406 172.820312 L 288.753906 160.84375 L 289.21875 158.988281 L 336.910156 170.964844 " fill-opacity="1" fill-rule="nonzero"/></g></g></g><g clip-path="url(#83b9d0e07a)"><g clip-path="url(#fc30fd5487)"><g clip-path="url(#bc66bd9be0)"><path fill="#212121" d="M 337.300781 169.414062 L 337.085938 170.265625 L 289.394531 158.289062 L 289.609375 157.4375 L 337.300781 169.414062 " fill-opacity="1" fill-rule="nonzero"/></g></g></g><g clip-path="url(#b7dd115d63)"><g clip-path="url(#8ab75d477e)"><g clip-path="url(#01b2920440)"><path fill="#212121" d="M 347.949219 127.003906 L 348.164062 126.15625 L 300.472656 114.179688 L 300.257812 115.027344 L 347.949219 127.003906 " fill-opacity="1" fill-rule="nonzero"/></g></g></g><g clip-path="url(#1abb75dfaf)"><g clip-path="url(#04384cb0a7)"><g clip-path="url(#1fccea7e6b)"><path fill="#212121" d="M 347.382812 129.253906 L 347.597656 128.40625 L 299.90625 116.429688 L 299.695312 117.277344 L 347.382812 129.253906 " fill-opacity="1" fill-rule="nonzero"/></g></g></g><g clip-path="url(#3b15158d1a)"><g clip-path="url(#9969115914)"><g clip-path="url(#cdc976f320)"><path fill="#212121" d="M 346.671875 132.089844 L 347.03125 130.660156 L 299.339844 118.683594 L 298.980469 120.113281 L 346.671875 132.089844 " fill-opacity="1" fill-rule="nonzero"/></g></g></g><g clip-path="url(#dc6b60b4a2)"><g clip-path="url(#d15c24037d)"><g clip-path="url(#b7b89aba6d)"><path fill="#212121" d="M 346.054688 134.542969 L 346.464844 132.914062 L 298.777344 120.9375 L 298.367188 122.570312 L 346.054688 134.542969 " fill-opacity="1" fill-rule="nonzero"/></g></g></g><g clip-path="url(#d4a3818ffc)"><g clip-path="url(#4c6e090d7f)"><g clip-path="url(#56c9e05929)"><path fill="#212121" d="M 345.6875 136.015625 L 345.898438 135.167969 L 298.210938 123.191406 L 297.996094 124.039062 L 345.6875 136.015625 " fill-opacity="1" fill-rule="nonzero"/></g></g></g><g clip-path="url(#267294c8d8)"><g clip-path="url(#68eec6e66a)"><g clip-path="url(#afd29d3887)"><path fill="#212121" d="M 345.121094 138.265625 L 345.484375 136.824219 L 297.792969 124.847656 L 297.429688 126.289062 L 345.121094 138.265625 " fill-opacity="1" fill-rule="nonzero"/></g></g></g><g clip-path="url(#a45d383809)"><g clip-path="url(#95a197f6c5)"><g clip-path="url(#4ab917528b)"><path fill="#212121" d="M 344.554688 140.519531 L 344.769531 139.667969 L 297.078125 127.695312 L 296.867188 128.542969 L 344.554688 140.519531 " fill-opacity="1" fill-rule="nonzero"/></g></g></g><g clip-path="url(#5fdf5afd37)"><g clip-path="url(#43808cb54f)"><g clip-path="url(#02cee4d355)"><path fill="#212121" d="M 343.808594 143.484375 L 344.203125 141.921875 L 296.511719 129.945312 L 296.121094 131.507812 L 343.808594 143.484375 " fill-opacity="1" fill-rule="nonzero"/></g></g></g><g clip-path="url(#0e4f708cf3)"><g clip-path="url(#35f38d23ed)"><g clip-path="url(#8d8aeb71ac)"><path fill="#212121" d="M 343.421875 145.027344 L 343.636719 144.175781 L 295.945312 132.199219 L 295.734375 133.050781 L 343.421875 145.027344 " fill-opacity="1" fill-rule="nonzero"/></g></g></g><g clip-path="url(#a2b736679a)"><g clip-path="url(#1823dd63b3)"><g clip-path="url(#317e24d989)"><path fill="#212121" d="M 342.859375 147.277344 L 343.238281 145.765625 L 295.546875 133.789062 L 295.167969 135.300781 L 342.859375 147.277344 " fill-opacity="1" fill-rule="nonzero"/></g></g></g><g clip-path="url(#bca74309f2)"><g clip-path="url(#7d589c215f)"><g clip-path="url(#7d20589a50)"><path fill="#212121" d="M 342.292969 149.53125 L 342.503906 148.683594 L 294.816406 136.707031 L 294.601562 137.554688 L 342.292969 149.53125 " fill-opacity="1" fill-rule="nonzero"/></g></g></g><g clip-path="url(#6457a1a1dd)"><g clip-path="url(#3c48ef3ad0)"><g clip-path="url(#74c09be366)"><path fill="#212121" d="M 341.726562 151.78125 L 342.070312 150.410156 L 294.382812 138.433594 L 294.035156 139.804688 L 341.726562 151.78125 " fill-opacity="1" fill-rule="nonzero"/></g></g></g><g clip-path="url(#e1868aa18f)"><g clip-path="url(#721e33587a)"><g clip-path="url(#c6dca07ff1)"><path fill="#212121" d="M 341.265625 153.613281 L 341.375 153.183594 L 293.683594 141.210938 L 293.578125 141.636719 L 341.265625 153.613281 " fill-opacity="1" fill-rule="nonzero"/></g></g></g><g clip-path="url(#71d3f2342e)"><g clip-path="url(#ff8f472619)"><g clip-path="url(#f0e5cca947)"><path fill="#212121" d="M 340.59375 156.289062 L 341.082031 154.351562 L 293.390625 142.378906 L 292.90625 144.3125 L 340.59375 156.289062 " fill-opacity="1" fill-rule="nonzero"/></g></g></g><g clip-path="url(#ac60a9049c)"><g clip-path="url(#696f1fed37)"><g clip-path="url(#09e7de0622)"><path fill="#212121" d="M 340.027344 158.542969 L 340.242188 157.691406 L 292.554688 145.714844 L 292.339844 146.566406 L 340.027344 158.542969 " fill-opacity="1" fill-rule="nonzero"/></g></g></g><g clip-path="url(#b2d1cd47b4)"><g clip-path="url(#df5896869d)"><g clip-path="url(#05f375173f)"><path fill="#212121" d="M 339.464844 160.792969 L 339.804688 159.4375 L 292.113281 147.460938 L 291.773438 148.816406 L 339.464844 160.792969 " fill-opacity="1" fill-rule="nonzero"/></g></g></g><g clip-path="url(#87c592f04c)"><g clip-path="url(#dec1c84661)"><g clip-path="url(#d6efe86056)"><path fill="#212121" d="M 338.898438 163.042969 L 339.363281 161.191406 L 291.675781 149.214844 L 291.207031 151.070312 L 338.898438 163.042969 " fill-opacity="1" fill-rule="nonzero"/></g></g></g><g clip-path="url(#6a9da4ce5e)"><g clip-path="url(#03b0ef9935)"><g clip-path="url(#75cd48728d)"><path fill="#212121" d="M 338.507812 164.597656 L 338.722656 163.75 L 291.03125 151.773438 L 290.820312 152.621094 L 338.507812 164.597656 " fill-opacity="1" fill-rule="nonzero"/></g></g></g><g clip-path="url(#2515bca8aa)"><g clip-path="url(#96c6164fa8)"><g clip-path="url(#3609ec5160)"><path fill="#212121" d="M 337.757812 167.585938 L 337.542969 168.433594 L 289.855469 156.457031 L 290.066406 155.613281 L 337.757812 167.585938 " fill-opacity="1" fill-rule="nonzero"/></g></g></g><g clip-path="url(#224c5e1eb2)"><g clip-path="url(#223ad37c1e)"><g clip-path="url(#127878dd41)"><path fill="#212121" d="M 338.324219 165.335938 L 338.109375 166.183594 L 290.421875 154.207031 L 290.632812 153.359375 L 338.324219 165.335938 " fill-opacity="1" fill-rule="nonzero"/></g></g></g><g fill="#000000" fill-opacity="1"><g transform="translate(119.785766, 87.321227)"><g><path d="M 6.125 1.6875 C 4.863281 1.375 3.898438 0.953125 3.234375 0.421875 C 2.578125 -0.0976562 2.15625 -0.691406 1.96875 -1.359375 C 1.78125 -2.023438 1.78125 -2.71875 1.96875 -3.4375 L 2.0625 -3.828125 C 2.238281 -4.546875 2.566406 -5.148438 3.046875 -5.640625 C 3.523438 -6.140625 4.179688 -6.460938 5.015625 -6.609375 C 5.847656 -6.753906 6.894531 -6.671875 8.15625 -6.359375 C 9.207031 -6.085938 10.066406 -5.726562 10.734375 -5.28125 C 11.410156 -4.84375 11.894531 -4.347656 12.1875 -3.796875 C 12.488281 -3.253906 12.582031 -2.703125 12.46875 -2.140625 L 11.3125 -2.4375 C 11.394531 -3.007812 11.128906 -3.5625 10.515625 -4.09375 C 9.898438 -4.625 9.023438 -5.035156 7.890625 -5.328125 C 6.460938 -5.679688 5.367188 -5.691406 4.609375 -5.359375 C 3.859375 -5.023438 3.375 -4.425781 3.15625 -3.5625 L 3.0625 -3.171875 C 2.84375 -2.304688 2.984375 -1.539062 3.484375 -0.875 C 3.992188 -0.21875 4.960938 0.285156 6.390625 0.640625 C 7.617188 0.953125 8.585938 1.003906 9.296875 0.796875 C 10.003906 0.597656 10.503906 0.207031 10.796875 -0.375 L 11.953125 -0.078125 C 11.722656 0.472656 11.363281 0.929688 10.875 1.296875 C 10.382812 1.660156 9.742188 1.882812 8.953125 1.96875 C 8.171875 2.0625 7.226562 1.96875 6.125 1.6875 Z M 6.125 1.6875 "/></g></g></g><g fill="#000000" fill-opacity="1"><g transform="translate(132.407595, 90.501374)"><g><path d="M 5.828125 1.625 C 4.890625 1.382812 4.132812 1.085938 3.5625 0.734375 C 2.988281 0.378906 2.566406 -0.0078125 2.296875 -0.4375 C 2.035156 -0.863281 1.882812 -1.320312 1.84375 -1.8125 C 1.800781 -2.300781 1.847656 -2.804688 1.984375 -3.328125 L 3.0625 -7.46875 L 4.203125 -7.1875 L 3.15625 -3.03125 C 2.945312 -2.21875 3.070312 -1.503906 3.53125 -0.890625 C 4 -0.273438 4.859375 0.191406 6.109375 0.515625 C 7.390625 0.835938 8.367188 0.84375 9.046875 0.53125 C 9.722656 0.21875 10.164062 -0.359375 10.375 -1.203125 L 11.46875 -5.359375 L 12.625 -5.0625 L 11.609375 -1.046875 C 11.472656 -0.515625 11.273438 -0.0351562 11.015625 0.390625 C 10.753906 0.816406 10.398438 1.160156 9.953125 1.421875 C 9.503906 1.691406 8.941406 1.851562 8.265625 1.90625 C 7.585938 1.957031 6.773438 1.863281 5.828125 1.625 Z M 5.828125 1.625 "/></g></g></g><g fill="#000000" fill-opacity="1"><g transform="translate(144.538517, 93.557833)"><g><path d="M 11.625 -2.90625 C 11.5 -2.382812 11.296875 -2 11.015625 -1.75 C 10.734375 -1.507812 10.382812 -1.378906 9.96875 -1.359375 C 10.300781 -1.078125 10.515625 -0.753906 10.609375 -0.390625 C 10.710938 -0.0351562 10.710938 0.34375 10.609375 0.75 L 10.34375 1.796875 C 10.3125 1.921875 10.285156 2.046875 10.265625 2.171875 C 10.242188 2.304688 10.226562 2.441406 10.21875 2.578125 L 9.015625 2.265625 C 9.023438 2.140625 9.039062 2.007812 9.0625 1.875 C 9.082031 1.75 9.109375 1.628906 9.140625 1.515625 L 9.390625 0.5 C 9.453125 0.238281 9.472656 0 9.453125 -0.21875 C 9.429688 -0.4375 9.320312 -0.632812 9.125 -0.8125 C 8.925781 -1 8.59375 -1.15625 8.125 -1.28125 L 3.515625 -2.4375 L 2.734375 0.6875 L 1.609375 0.40625 L 3.5625 -7.34375 L 9.625 -5.8125 C 10.476562 -5.601562 11.078125 -5.269531 11.421875 -4.8125 C 11.765625 -4.351562 11.851562 -3.785156 11.6875 -3.109375 Z M 10.53125 -3.171875 L 10.59375 -3.375 C 10.664062 -3.675781 10.617188 -3.953125 10.453125 -4.203125 C 10.296875 -4.453125 9.929688 -4.648438 9.359375 -4.796875 L 4.421875 -6.046875 L 3.796875 -3.546875 L 8.734375 -2.296875 C 9.265625 -2.160156 9.671875 -2.171875 9.953125 -2.328125 C 10.242188 -2.484375 10.4375 -2.765625 10.53125 -3.171875 Z M 10.53125 -3.171875 "/></g></g></g><g fill="#000000" fill-opacity="1"><g transform="translate(156.191448, 96.49386)"><g><path d="M 11.625 -2.90625 C 11.5 -2.382812 11.296875 -2 11.015625 -1.75 C 10.734375 -1.507812 10.382812 -1.378906 9.96875 -1.359375 C 10.300781 -1.078125 10.515625 -0.753906 10.609375 -0.390625 C 10.710938 -0.0351562 10.710938 0.34375 10.609375 0.75 L 10.34375 1.796875 C 10.3125 1.921875 10.285156 2.046875 10.265625 2.171875 C 10.242188 2.304688 10.226562 2.441406 10.21875 2.578125 L 9.015625 2.265625 C 9.023438 2.140625 9.039062 2.007812 9.0625 1.875 C 9.082031 1.75 9.109375 1.628906 9.140625 1.515625 L 9.390625 0.5 C 9.453125 0.238281 9.472656 0 9.453125 -0.21875 C 9.429688 -0.4375 9.320312 -0.632812 9.125 -0.8125 C 8.925781 -1 8.59375 -1.15625 8.125 -1.28125 L 3.515625 -2.4375 L 2.734375 0.6875 L 1.609375 0.40625 L 3.5625 -7.34375 L 9.625 -5.8125 C 10.476562 -5.601562 11.078125 -5.269531 11.421875 -4.8125 C 11.765625 -4.351562 11.851562 -3.785156 11.6875 -3.109375 Z M 10.53125 -3.171875 L 10.59375 -3.375 C 10.664062 -3.675781 10.617188 -3.953125 10.453125 -4.203125 C 10.296875 -4.453125 9.929688 -4.648438 9.359375 -4.796875 L 4.421875 -6.046875 L 3.796875 -3.546875 L 8.734375 -2.296875 C 9.265625 -2.160156 9.671875 -2.171875 9.953125 -2.328125 C 10.242188 -2.484375 10.4375 -2.765625 10.53125 -3.171875 Z M 10.53125 -3.171875 "/></g></g></g><g fill="#000000" fill-opacity="1"><g transform="translate(167.844376, 99.429886)"><g><path d="M 11.234375 -4.421875 L 4.390625 -6.140625 L 3.75 -3.578125 L 9.90625 -2.03125 L 9.65625 -1.078125 L 3.5 -2.625 L 2.90625 -0.265625 L 9.75 1.453125 L 9.515625 2.390625 L 1.609375 0.40625 L 3.5625 -7.34375 L 11.46875 -5.359375 Z M 11.234375 -4.421875 "/></g></g></g><g fill="#000000" fill-opacity="1"><g transform="translate(178.489649, 102.112027)"><g><path d="M 11.109375 -5.4375 L 12.171875 -5.171875 L 10.21875 2.578125 L 8.78125 2.21875 L 4.34375 -5.953125 L 2.671875 0.671875 L 1.609375 0.40625 L 3.5625 -7.34375 L 4.96875 -6.984375 L 9.4375 1.171875 Z M 11.109375 -5.4375 "/></g></g></g><g fill="#000000" fill-opacity="1"><g transform="translate(190.646399, 105.174994)"><g><path d="M 10.53125 -5.59375 L 10.28125 -4.59375 L 6.484375 -5.546875 L 4.78125 1.203125 L 3.75 0.9375 L 5.453125 -5.8125 L 1.65625 -6.765625 L 1.90625 -7.765625 Z M 10.53125 -5.59375 "/></g></g></g><g fill="#000000" fill-opacity="1"><g transform="translate(199.508906, 107.407957)"><g><path d="M 4.609375 -7.078125 L 2.90625 -0.3125 L 9.359375 1.3125 L 9.109375 2.296875 L 1.59375 0.40625 L 3.546875 -7.34375 Z M 4.609375 -7.078125 "/></g></g></g><g fill="#000000" fill-opacity="1"><g transform="translate(209.482409, 109.920841)"><g><path d="M 10.203125 -5.671875 L 11.65625 -5.3125 L 6.03125 -1.5 L 5.3125 1.34375 L 4.25 1.078125 L 4.96875 -1.78125 L 1.859375 -7.765625 L 3.3125 -7.40625 L 5.765625 -2.65625 Z M 10.203125 -5.671875 "/></g></g></g><g fill="#000000" fill-opacity="1"><g transform="translate(219.442997, 112.430472)"><g/></g></g><g fill="#000000" fill-opacity="1"><g transform="translate(224.959586, 113.82041)"><g><path d="M 1.609375 0.40625 L 3.5625 -7.34375 L 4.625 -7.078125 L 2.671875 0.671875 Z M 1.609375 0.40625 "/></g></g></g><g fill="#000000" fill-opacity="1"><g transform="translate(229.57186, 114.982501)"><g><path d="M 11.109375 -5.4375 L 12.171875 -5.171875 L 10.21875 2.578125 L 8.78125 2.21875 L 4.34375 -5.953125 L 2.671875 0.671875 L 1.609375 0.40625 L 3.5625 -7.34375 L 4.96875 -6.984375 L 9.4375 1.171875 Z M 11.109375 -5.4375 "/></g></g></g><text x="135" y="100" transform="rotate(14 50 50)" font-family="Beautifully Delicious Sans" font-size="18" fill="black">THAILAND</text></svg>
